<?xml version="1.0" encoding="UTF-8"?>
<svg version="1.1" xmlns="http://www.w3.org/2000/svg" width="500" height="500">
<path d="M0 0 C3.99423533 1.97098716 6.17585557 6.05689377 8.7734375 9.5625 C11.32202813 12.27870452 12.42439331 12.87653943 16.08984375 13.03125 C17.70346648 12.57021493 19.3159698 12.10243521 20.91015625 11.578125 C25.52637603 10.41993366 30.35301932 10.3268154 35.08984375 10.03125 C36.25137277 13.51583707 36.22254699 16.29815508 36.21484375 19.96875 C36.21871094 21.80759766 36.21871094 21.80759766 36.22265625 23.68359375 C36.1165191 26.35887431 35.88902029 28.50052428 35.08984375 31.03125 C36.22164063 31.29679687 37.3534375 31.56234375 38.51953125 31.8359375 C40.00139207 32.1923344 41.48315805 32.54912576 42.96484375 32.90625 C43.71121094 33.08027344 44.45757812 33.25429687 45.2265625 33.43359375 C50.86328125 34.8046875 50.86328125 34.8046875 53.08984375 37.03125 C53.1015625 38.90625 53.1015625 38.90625 52.77734375 41.03125 C52.67808594 41.7325 52.57882813 42.43375 52.4765625 43.15625 C52.08984375 45.03125 52.08984375 45.03125 51.08984375 47.03125 C50.42984375 47.03125 49.76984375 47.03125 49.08984375 47.03125 C48.84234375 47.753125 48.59484375 48.475 48.33984375 49.21875 C45.50720262 55.59219254 40.75209237 59.25641759 35.08984375 63.03125 C34.38214844 63.52367187 33.67445313 64.01609375 32.9453125 64.5234375 C25.35060165 69.10355273 16.71546115 69.09693486 8.08984375 68.03125 C5.74942307 67.38990773 3.41436109 66.72803407 1.08984375 66.03125 C-1.64035113 66.29891616 -4.05421172 66.77749653 -6.67578125 67.5546875 C-19.16948649 70.21942883 -30.04693852 66.78686196 -40.546875 60.1796875 C-41.22169922 59.61121094 -41.22169922 59.61121094 -41.91015625 59.03125 C-41.91015625 58.37125 -41.91015625 57.71125 -41.91015625 57.03125 C-42.57015625 57.03125 -43.23015625 57.03125 -43.91015625 57.03125 C-43.91015625 56.37125 -43.91015625 55.71125 -43.91015625 55.03125 C-44.57015625 55.03125 -45.23015625 55.03125 -45.91015625 55.03125 C-47.37249966 53.01566828 -48.68320873 51.02841765 -49.97265625 48.90625 C-50.33681641 48.33648437 -50.70097656 47.76671875 -51.07617188 47.1796875 C-53.35240809 43.47712212 -54.4834536 40.35079375 -54.91015625 36.03125 C-51.15789785 34.37440863 -47.64662564 33.52916837 -43.59765625 32.90625 C-41.99470703 32.65488281 -41.99470703 32.65488281 -40.359375 32.3984375 C-39.55113281 32.27726562 -38.74289063 32.15609375 -37.91015625 32.03125 C-36.79850393 27.5933939 -36.79487862 23.26168614 -36.84765625 18.71875 C-36.85216797 17.97818359 -36.85667969 17.23761719 -36.86132812 16.47460938 C-36.8730345 14.66012101 -36.89096727 12.84567466 -36.91015625 11.03125 C-28.35078496 10.66383661 -21.04793538 11.29147667 -12.91015625 14.03125 C-12.09611328 12.89236328 -12.09611328 12.89236328 -11.265625 11.73046875 C-10.55019531 10.73660156 -9.83476563 9.74273437 -9.09765625 8.71875 C-8.38996094 7.73261719 -7.68226562 6.74648437 -6.953125 5.73046875 C-2.64867864 0.04333217 -2.64867864 0.04333217 0 0 Z M-0.91015625 11.03125 C-7.8657132 20.92720274 -10.24075539 29.91329355 -8.91015625 42.03125 C-7.18605509 45.45348531 -7.18605509 45.45348531 -4.91015625 48.03125 C-3.66015625 51.40625 -3.66015625 51.40625 -2.91015625 54.03125 C-2.25015625 54.03125 -1.59015625 54.03125 -0.91015625 54.03125 C-0.58015625 54.69125 -0.25015625 55.35125 0.08984375 56.03125 C6.69547305 47.42496013 8.77265443 40.4298214 7.89453125 29.62890625 C6.75147737 22.90434461 3.28887544 16.97662022 0.08984375 11.03125 C-0.24015625 11.03125 -0.57015625 11.03125 -0.91015625 11.03125 Z M-26.91015625 19.03125 C-27.57015625 19.69125 -28.23015625 20.35125 -28.91015625 21.03125 C-28.70877805 23.44778843 -28.36884229 25.6599297 -27.91015625 28.03125 C-27.77351563 28.88203125 -27.636875 29.7328125 -27.49609375 30.609375 C-27.34398438 31.49109375 -27.191875 32.3728125 -27.03515625 33.28125 C-26.82246094 34.52648437 -26.82246094 34.52648437 -26.60546875 35.796875 C-25.82066029 38.31884376 -24.83377988 39.28110967 -22.91015625 41.03125 C-22.22265625 43.21875 -22.22265625 43.21875 -21.91015625 45.03125 C-21.25015625 45.03125 -20.59015625 45.03125 -19.91015625 45.03125 C-19.25015625 46.35125 -18.59015625 47.67125 -17.91015625 49.03125 C-16.80179202 47.14808841 -16.80179202 47.14808841 -15.91015625 45.03125 C-16.24015625 44.37125 -16.57015625 43.71125 -16.91015625 43.03125 C-17.26241216 36.2969459 -16.93436517 29.688608 -15.91015625 23.03125 C-17.55514667 22.36250616 -19.20117273 21.69630926 -20.84765625 21.03125 C-21.76417969 20.66 -22.68070313 20.28875 -23.625 19.90625 C-25.65797783 18.971652 -25.65797783 18.971652 -26.91015625 19.03125 Z M20.40234375 20.53125 C19.59410156 20.8096875 18.78585938 21.088125 17.953125 21.375 C17.33824219 21.5915625 16.72335938 21.808125 16.08984375 22.03125 C16.07002441 22.620271 16.05020508 23.20929199 16.02978516 23.81616211 C15.93341098 26.53407351 15.82419663 29.25133103 15.71484375 31.96875 C15.68390625 32.89494141 15.65296875 33.82113281 15.62109375 34.77539062 C15.3691328 40.75946322 14.55559568 46.22186735 13.08984375 52.03125 C14.07984375 51.28875 15.06984375 50.54625 16.08984375 49.78125 C16.64671875 49.36359375 17.20359375 48.9459375 17.77734375 48.515625 C19.53144623 46.8620553 19.53144623 46.8620553 19.08984375 43.03125 C19.74984375 43.03125 20.40984375 43.03125 21.08984375 43.03125 C26.71848406 36.69902965 28.51380185 27.29843301 28.08984375 19.03125 C25.07493818 19.03125 23.22120261 19.55077735 20.40234375 20.53125 Z M-42.91015625 42.03125 C-40.86022203 47.6815138 -40.86022203 47.6815138 -36.91015625 52.03125 C-36.25015625 52.03125 -35.59015625 52.03125 -34.91015625 52.03125 C-34.91015625 52.69125 -34.91015625 53.35125 -34.91015625 54.03125 C-33.45211456 54.84427325 -31.9937131 55.65665131 -30.53515625 56.46875 C-29.72304687 56.92121094 -28.9109375 57.37367188 -28.07421875 57.83984375 C-24.38082806 59.87320866 -22.16190831 60.12367939 -17.91015625 60.03125 C-18.67328125 59.28875 -19.43640625 58.54625 -20.22265625 57.78125 C-22.91015625 55.03125 -22.91015625 55.03125 -24.59765625 52.71875 C-25.03078125 52.161875 -25.46390625 51.605 -25.91015625 51.03125 C-26.57015625 51.03125 -27.23015625 51.03125 -27.91015625 51.03125 C-28.31234375 49.979375 -28.31234375 49.979375 -28.72265625 48.90625 C-29.97830115 45.8662676 -31.41250748 42.9584726 -32.91015625 40.03125 C-38.23186119 39.73562633 -38.23186119 39.73562633 -42.91015625 42.03125 Z M32.08984375 40.03125 C31.75210938 40.74152344 31.414375 41.45179688 31.06640625 42.18359375 C30.62039062 43.10269531 30.174375 44.02179688 29.71484375 44.96875 C29.05355469 46.34353516 29.05355469 46.34353516 28.37890625 47.74609375 C27.08984375 50.03125 27.08984375 50.03125 25.08984375 51.03125 C25.08984375 51.69125 25.08984375 52.35125 25.08984375 53.03125 C24.42984375 53.03125 23.76984375 53.03125 23.08984375 53.03125 C23.08984375 53.69125 23.08984375 54.35125 23.08984375 55.03125 C22.42984375 55.03125 21.76984375 55.03125 21.08984375 55.03125 C19.42317708 56.36458333 19.42317708 56.36458333 18.08984375 58.03125 C18.08984375 58.69125 18.08984375 59.35125 18.08984375 60.03125 C24.6870707 59.3715273 31.16554745 56.54518827 36.08984375 52.03125 C36.08984375 51.37125 36.08984375 50.71125 36.08984375 50.03125 C36.74984375 50.03125 37.40984375 50.03125 38.08984375 50.03125 C40.35900468 47.25257295 40.35900468 47.25257295 42.08984375 44.03125 C41.75984375 43.04125 41.42984375 42.05125 41.08984375 41.03125 C38.13319856 39.5529274 35.34754638 39.97092217 32.08984375 40.03125 Z M-15.91015625 49.03125 C-15.58015625 50.02125 -15.25015625 51.01125 -14.91015625 52.03125 C-14.25015625 51.70125 -13.59015625 51.37125 -12.91015625 51.03125 C-13.90015625 50.37125 -14.89015625 49.71125 -15.91015625 49.03125 Z " fill="#412E65" transform="translate(94.91015625,215.96875)"/>
<path d="M0 0 C0.33 -0.66 0.66 -1.32 1 -2 C10.57 -2 20.14 -2 30 -2 C29.67 0.64 29.34 3.28 29 6 C26.36 6 23.72 6 21 6 C20.67 14.25 20.34 22.5 20 31 C16.7 31 13.4 31 10 31 C10 22.42 10 13.84 10 5 C6.37 5.33 2.74 5.66 -1 6 C-1.33 6.66 -1.66 7.32 -2 8 C-3.45903258 7.69078116 -4.91720722 7.37751201 -6.375 7.0625 C-7.18710937 6.88847656 -7.99921875 6.71445313 -8.8359375 6.53515625 C-11 6 -11 6 -13 5 C-13 5.66 -13 6.32 -13 7 C-13.66 7 -14.32 7 -15 7 C-13.43318638 10.13362724 -10.78391746 10.34268902 -7.5625 11.5 C-1.21440823 13.78559177 -1.21440823 13.78559177 1 16 C1.24393359 20.6672627 0.90764033 24.79957247 -1.9375 28.5625 C-5.69308077 31.18002599 -8.16956639 31.16334159 -12.75 31.1875 C-13.96171875 31.20167969 -15.1734375 31.21585937 -16.421875 31.23046875 C-19.97596723 31.00154796 -22.6713673 30.20306296 -26 29 C-26.99 29 -27.98 29 -29 29 C-29 29.66 -29 30.32 -29 31 C-37.91 31 -46.82 31 -56 31 C-56 20.11 -56 9.22 -56 -2 C-47.42 -2 -38.84 -2 -30 -2 C-30 0.31 -30 2.62 -30 5 C-34.62 5 -39.24 5 -44 5 C-44.33 6.65 -44.66 8.3 -45 10 C-44.154375 9.79375 -43.30875 9.5875 -42.4375 9.375 C-38.46439054 8.94156988 -35.75375382 9.7237237 -32 11 C-32 13.31 -32 15.62 -32 18 C-36.95 18 -41.9 18 -47 18 C-46.67 19.65 -46.34 21.3 -46 23 C-43.29057607 23.10861833 -40.585561 23.18758577 -37.875 23.25 C-37.11445313 23.28351563 -36.35390625 23.31703125 -35.5703125 23.3515625 C-30.06579478 23.44646798 -27.28518776 22.47743672 -23 19 C-21.453125 19.99 -21.453125 19.99 -19.875 21 C-16.46423174 22.97282726 -13.9798357 23.38827665 -10 23 C-9.505 21.515 -9.505 21.515 -9 20 C-9.60328125 19.86722656 -10.2065625 19.73445313 -10.828125 19.59765625 C-11.62734375 19.42105469 -12.4265625 19.24445313 -13.25 19.0625 C-14.03890625 18.88847656 -14.8278125 18.71445313 -15.640625 18.53515625 C-16.80851562 18.27025391 -16.80851562 18.27025391 -18 18 C-18.71027344 17.87753906 -19.42054688 17.75507813 -20.15234375 17.62890625 C-22.98106037 16.66606613 -23.97074819 14.52245948 -25.3125 11.98046875 C-26.42079518 8.78782299 -25.81711545 6.20560676 -25 3 C-24.67 2.34 -24.34 1.68 -24 1 C-23.34 1 -22.68 1 -22 1 C-22 0.34 -22 -0.32 -22 -1 C-13.88068841 -4.16851184 -7.87219359 -2.99893089 0 0 Z " fill="#463567" transform="translate(402,234)"/>
<path d="M0 0 C9.24 0 18.48 0 28 0 C28 9.00531915 28 9.00531915 25.5 11.9375 C24.95988281 12.58847656 24.41976562 13.23945313 23.86328125 13.91015625 C23.24839844 14.59980469 22.63351563 15.28945312 22 16 C21.29230469 16.80308594 20.58460938 17.60617188 19.85546875 18.43359375 C18.46031361 20.00471441 17.05481178 21.56673912 15.63671875 23.1171875 C13.94144846 24.90936558 13.94144846 24.90936558 13 27 C14.55460938 26.85691406 14.55460938 26.85691406 16.140625 26.7109375 C17.51036729 26.59835594 18.88016193 26.48641012 20.25 26.375 C21.27287109 26.27832031 21.27287109 26.27832031 22.31640625 26.1796875 C26.50478166 25.85437679 28.10816342 26.05408171 32 28 C32 19.09 32 10.18 32 1 C39.875 -0.125 39.875 -0.125 44.05859375 0.12109375 C45.37827148 0.19360352 45.37827148 0.19360352 46.72460938 0.26757812 C48.06749023 0.35168945 48.06749023 0.35168945 49.4375 0.4375 C50.35982422 0.48970703 51.28214844 0.54191406 52.23242188 0.59570312 C54.48871536 0.72430016 56.74444029 0.8592071 59 1 C59 3.31 59 5.62 59 8 C53.72 8 48.44 8 43 8 C42.67 9.65 42.34 11.3 42 13 C42.9590625 12.7215625 42.9590625 12.7215625 43.9375 12.4375 C48.04370392 11.85089944 51.92818994 12.24284524 56 13 C56.495 13.495 56.495 13.495 57 14 C56.71269945 16.33944736 56.38063221 18.6739143 56 21 C52.04 21.33 48.08 21.66 44 22 C43.67 23.32 43.34 24.64 43 26 C44.14339844 26.06058594 45.28679687 26.12117188 46.46484375 26.18359375 C47.95574305 26.26798428 49.44662775 26.35263302 50.9375 26.4375 C51.69224609 26.47681641 52.44699219 26.51613281 53.22460938 26.55664062 C58.88671875 26.88671875 58.88671875 26.88671875 60 28 C60.04080783 29.99958364 60.04254356 32.00045254 60 34 C39.66666667 34 19.33333333 34 -1 34 C-1.22851562 28.32470703 -1.22851562 28.32470703 0.828125 25.40234375 C1.62734375 24.58894531 2.4265625 23.77554688 3.25 22.9375 C7.92774217 18.2197803 7.92774217 18.2197803 12 13 C11.67 11.68 11.34 10.36 11 9 C7.37 8.67 3.74 8.34 0 8 C0 5.36 0 2.72 0 0 Z " fill="#3D2A5E" transform="translate(157,231)"/>
<path d="M0 0 C6.15234375 -0.09765625 6.15234375 -0.09765625 8 0 C9 1 9 1 9.11352539 4.14282227 C9.11336633 5.53402697 9.10767506 6.92523761 9.09765625 8.31640625 C9.0962413 9.04746078 9.09482635 9.77851532 9.09336853 10.53172302 C9.08775408 12.87535632 9.07519922 15.21889539 9.0625 17.5625 C9.05748686 19.14778508 9.05292363 20.73307166 9.04882812 22.31835938 C9.03777997 26.2122761 9.02050572 30.10612205 9 34 C5.94077907 34.31481087 3.05082005 34.44227092 0 34 C-2.5234375 31.69921875 -2.5234375 31.69921875 -4.375 28.6875 C-6.76253746 24.77658558 -6.76253746 24.77658558 -9.7265625 21.33203125 C-11 20 -11 20 -11 17 C-11.66 17 -12.32 17 -13 17 C-12.34 22.28 -11.68 27.56 -11 33 C-14 35 -14 35 -21 34 C-21 23.11 -21 12.22 -21 1 C-14 1 -14 1 -11.375 3.0625 C-9.58444834 5.27712969 -7.97593139 7.46827903 -6.375 9.8125 C-5.59125 10.864375 -4.8075 11.91625 -4 13 C-3.01 13 -2.02 13 -1 13 C-0.67 8.71 -0.34 4.42 0 0 Z " fill="#433067" transform="translate(242,231)"/>
<path d="M0 0 C0.66 0 1.32 0 2 0 C2.02707139 2.24993359 2.04642829 4.49996095 2.0625 6.75 C2.07410156 8.00296875 2.08570313 9.2559375 2.09765625 10.546875 C2.02021027 13.28536501 1.82780815 15.41880293 1 18 C2.13179687 18.26554687 3.26359375 18.53109375 4.4296875 18.8046875 C5.91154832 19.1610844 7.3933143 19.51787576 8.875 19.875 C9.99455078 20.13603516 9.99455078 20.13603516 11.13671875 20.40234375 C16.7734375 21.7734375 16.7734375 21.7734375 19 24 C19.01171875 25.875 19.01171875 25.875 18.6875 28 C18.58824219 28.70125 18.48898438 29.4025 18.38671875 30.125 C18 32 18 32 17 34 C16.34 34 15.68 34 15 34 C14.7525 34.721875 14.505 35.44375 14.25 36.1875 C11.41735887 42.56094254 6.66224862 46.22516759 1 50 C0.29230469 50.49242187 -0.41539062 50.98484375 -1.14453125 51.4921875 C-9.01308578 56.23744867 -17.13468716 55.46280635 -26 55 C-26 54.67 -26 54.34 -26 54 C-21.05 53.67 -16.1 53.34 -11 53 C-11.33 50.69 -11.66 48.38 -12 46 C-7.33333333 43.66666667 -2.66666667 41.33333333 2 39 C2 38.34 2 37.68 2 37 C2.66 37 3.32 37 4 37 C5.4731994 34.25002779 6.22404875 32.10380501 7 29 C4.03 28.34 1.06 27.68 -2 27 C-2.268125 27.886875 -2.53625 28.77375 -2.8125 29.6875 C-3.9250635 32.7909666 -5.10195778 35.31110685 -7 38 C-7.66 38 -8.32 38 -9 38 C-9 38.66 -9 39.32 -9 40 C-9.66 40 -10.32 40 -11 40 C-11 40.66 -11 41.32 -11 42 C-11.66 42 -12.32 42 -13 42 C-13.33 42.99 -13.66 43.98 -14 45 C-15.485 45.495 -15.485 45.495 -17 46 C-17.185625 44.2984375 -17.185625 44.2984375 -17.375 42.5625 C-17.58125 41.386875 -17.7875 40.21125 -18 39 C-18.66 38.67 -19.32 38.34 -20 38 C-19.360625 37.4225 -18.72125 36.845 -18.0625 36.25 C-16.01776132 34.01937599 -15.41794801 32.92563609 -15 30 C-14.34 30 -13.68 30 -13 30 C-10.43235778 25.04811858 -8.77485616 20.55313582 -8 15 C-7.01 16.485 -7.01 16.485 -6 18 C-5.67 16.35 -5.34 14.7 -5 13 C-4.34 13 -3.68 13 -3 13 C-2.67 12.34 -2.34 11.68 -2 11 C-1.67 11.33 -1.34 11.66 -1 12 C-0.67 8.04 -0.34 4.08 0 0 Z " fill="#3D2A60" transform="translate(129,229)"/>
<path d="M0 0 C8.58 0 17.16 0 26 0 C26 2.31 26 4.62 26 7 C21.38 7 16.76 7 12 7 C11.67 8.65 11.34 10.3 11 12 C11.845625 11.79375 12.69125 11.5875 13.5625 11.375 C17.53560946 10.94156988 20.24624618 11.7237237 24 13 C24 15.31 24 17.62 24 20 C19.05 20 14.1 20 9 20 C9.33 21.65 9.66 23.3 10 25 C12.77109307 25.05392397 15.54113818 25.09363455 18.3125 25.125 C19.49102539 25.15013672 19.49102539 25.15013672 20.69335938 25.17578125 C21.45068359 25.18222656 22.20800781 25.18867188 22.98828125 25.1953125 C24.03302612 25.21102295 24.03302612 25.21102295 25.09887695 25.22705078 C27.331173 25.10574595 27.331173 25.10574595 30 23 C31.32 23 32.64 23 34 23 C34 25.31 34 27.62 34 30 C32.68 29.67 31.36 29.34 30 29 C30 29.66 30 30.32 30 31 C29.01 31 28.02 31 27 31 C27 31.66 27 32.32 27 33 C18.09 33 9.18 33 0 33 C0 22.11 0 11.22 0 0 Z " fill="#4C3A6D" transform="translate(346,232)"/>
<path d="M0 0 C-0.54723683 3.37462715 -1.0549 5.08235 -3 8 C-3.56847656 7.76023438 -4.13695312 7.52046875 -4.72265625 7.2734375 C-8.92398644 5.66023893 -11.39752168 4.90436852 -15.9375 5.625 C-19.23784987 6.78059936 -19.23784987 6.78059936 -21 10 C-21.42379221 13.88476191 -21.61457992 16.10176781 -19.375 19.375 C-16.56154387 21.2999963 -14.3666837 21.69393785 -11 22 C-10.67 21.34 -10.34 20.68 -10 20 C-9.34 20 -8.68 20 -8 20 C-8.185625 19.21625 -8.37125 18.4325 -8.5625 17.625 C-9 15 -9 15 -8 13 C-5.36 13 -2.72 13 0 13 C0 17.62 0 22.24 0 27 C-7.35798427 30.67899214 -12.90481172 31.06180329 -21 30 C-24.54582657 28.54493969 -27.4200179 26.85500558 -30 24 C-30.37182451 22.6768842 -30.71202981 21.34386088 -31 20 C-31.66 19.67 -32.32 19.34 -33 19 C-31.85277409 5.41443006 -31.85277409 5.41443006 -26.75 0.75 C-17.82952216 -6.29054243 -9.64625217 -4.34760661 0 0 Z " fill="#3F2C65" transform="translate(305,235)"/>
<path d="M0 0 C1.2077558 3.62326739 0.54311128 4.64146369 -1 8 C-4.9492568 7.44894091 -8.34920174 6.61064629 -12 5 C-12 5.66 -12 6.32 -12 7 C-12.99 7 -13.98 7 -15 7 C-14.67 7.66 -14.34 8.32 -14 9 C-11.49730442 9.60549087 -8.99096441 9.95762488 -6.4453125 10.33984375 C-3.74526364 11.06877068 -2.67378923 11.78860298 -1 14 C-1 14.66 -1 15.32 -1 16 C-0.34 16 0.32 16 1 16 C1.53492389 21.101589 1.82898405 24.74396356 -1.0625 29.125 C-6.40113112 32.72666023 -13.9169853 31.63474936 -20 31 C-22.71070397 30.26375942 -24.56528393 29.42519965 -27 28 C-27 26.35 -27 24.7 -27 23 C-26.34 23 -25.68 23 -25 23 C-24.67 22.01 -24.34 21.02 -24 20 C-21.75568304 20.4987371 -19.74953781 21.10545777 -17.625 22 C-14.75888129 23.09185475 -12.0307961 23.57709822 -9 24 C-8.99587887 22.03156972 -8.99587887 22.03156972 -10 20 C-12.93922879 18.73672556 -12.93922879 18.73672556 -16.4375 17.9375 C-22.79179532 16.31230701 -22.79179532 16.31230701 -25 13 C-25.95623299 9.10151167 -26.18023729 6.62482262 -25.0625 2.75 C-18.92825093 -5.42899876 -8.28848845 -3.85843428 0 0 Z " fill="#3C2B5F" transform="translate(458,234)"/>
<path d="M0 0 C0.33 8.25 0.66 16.5 1 25 C6.55810604 26.40723561 6.55810604 26.40723561 10 25 C12.12280563 21.81579155 12.28019537 20.79462745 12.4140625 17.11328125 C12.45273437 16.17548828 12.49140625 15.23769531 12.53125 14.27148438 C12.57765625 12.80678711 12.57765625 12.80678711 12.625 11.3125 C12.66367187 10.32443359 12.70234375 9.33636719 12.7421875 8.31835938 C12.83645867 5.87909293 12.92206218 3.43983405 13 1 C15.64 1 18.28 1 21 1 C21.14570522 5.20796686 21.23421087 9.41528166 21.3125 13.625 C21.35439453 14.81480469 21.39628906 16.00460938 21.43945312 17.23046875 C21.57760096 27.12185387 21.57760096 27.12185387 18.64453125 30.75 C12.68948286 35.81662906 6.44880917 35.23857396 -1 35 C-1 34.34 -1 33.68 -1 33 C-1.598125 32.731875 -2.19625 32.46375 -2.8125 32.1875 C-5.09795418 30.94682487 -6.44064279 30.07914294 -8 28 C-9.32649698 22.42512757 -9.11263102 16.81679928 -9.0625 11.125 C-9.05798828 10.15046875 -9.05347656 9.1759375 -9.04882812 8.171875 C-9.03710906 5.78118566 -9.02070219 3.3906256 -9 1 C-2.25 0 -2.25 0 0 0 Z " fill="#6D6088" transform="translate(319,231)"/>
<path d="M0 0 C2.1796875 -0.328125 2.1796875 -0.328125 4.875 -0.25 C5.84824219 -0.22421875 6.82148438 -0.1984375 7.82421875 -0.171875 C12.89430043 0.10252056 17.94680181 0.50614468 23 1 C23 3.31 23 5.62 23 8 C17.72 8 12.44 8 7 8 C6.67 8.99 6.34 9.98 6 11 C5.01 11.33 4.02 11.66 3 12 C1.64691687 13.31328657 0.31129922 14.64499081 -1 16 C-1.33 16 -1.66 16 -2 16 C-2.05402274 13.89611431 -2.09280256 11.79183286 -2.125 9.6875 C-2.14820313 8.51574219 -2.17140625 7.34398437 -2.1953125 6.13671875 C-2 3 -2 3 0 0 Z " fill="#362854" transform="translate(193,231)"/>
<path d="M0 0 C0.99 0.33 1.98 0.66 3 1 C3.474375 2.11375 3.94875 3.2275 4.4375 4.375 C5.99695672 7.99293959 6.8411348 8.93039866 10 11 C10 11.66 10 12.32 10 13 C10.7425 13.268125 11.485 13.53625 12.25 13.8125 C14.86636554 14.94229421 16.80187111 16.20893202 19 18 C18.34 18 17.68 18 17 18 C16.01 20.475 16.01 20.475 15 23 C15.66 23 16.32 23 17 23 C17 23.66 17 24.32 17 25 C11.8423143 23.58163643 7.20024742 21.32608425 3 18 C3 17.34 3 16.68 3 16 C2.34 16 1.68 16 1 16 C1 15.34 1 14.68 1 14 C0.34 14 -0.32 14 -1 14 C-2.625 11.5 -2.625 11.5 -4 9 C-3.34 8.34 -2.68 7.68 -2 7 C-2.66 6.01 -3.32 5.02 -4 4 C-3.34 4 -2.68 4 -2 4 C-2 3.01 -2 2.02 -2 1 C-1.34 0.67 -0.68 0.34 0 0 Z " fill="#554473" transform="translate(50,257)"/>
<path d="M0 0 C0.99 0.66 1.98 1.32 3 2 C2.01 2.495 2.01 2.495 1 3 C1 6.96 1 10.92 1 15 C1.99 14.67 2.98 14.34 4 14 C4.33 13.01 4.66 12.02 5 11 C5.99 11 6.98 11 8 11 C8 11.66 8 12.32 8 13 C8.639375 12.814375 9.27875 12.62875 9.9375 12.4375 C14.04370392 11.85089944 17.92818994 12.24284524 22 13 C22.33 13.33 22.66 13.66 23 14 C22.71269945 16.33944736 22.38063221 18.6739143 22 21 C19.72942623 21.05398987 17.45848712 21.09278742 15.1875 21.125 C13.29064453 21.15980469 13.29064453 21.15980469 11.35546875 21.1953125 C8 21 8 21 5 19 C4.360625 19.33 3.72125 19.66 3.0625 20 C1 21 1 21 0 21 C-0.33 22.98 -0.66 24.96 -1 27 C-1.33 27 -1.66 27 -2 27 C-2 18.42 -2 9.84 -2 1 C-1.34 0.67 -0.68 0.34 0 0 Z " fill="#3C2960" transform="translate(191,231)"/>
<path d="M0 0 C1 2 1 2 1 5 C2.98 5 4.96 5 7 5 C4.53000182 10.24874613 0.71939523 12.90239007 -4 16 C-4.70898438 16.49242187 -5.41796875 16.98484375 -6.1484375 17.4921875 C-14.01073832 22.24176854 -22.13908766 21.46257663 -31 21 C-31 20.67 -31 20.34 -31 20 C-26.05 19.67 -21.1 19.34 -16 19 C-16.33 16.69 -16.66 14.38 -17 12 C-12.33333333 9.66666667 -7.66666667 7.33333333 -3 5 C-3 4.34 -3 3.68 -3 3 C-2.34 3 -1.68 3 -1 3 C-0.67 2.01 -0.34 1.02 0 0 Z " fill="#453467" transform="translate(134,263)"/>
<path d="M0 0 C2.31 0 4.62 0 7 0 C6.99214478 1.11242065 6.99214478 1.11242065 6.98413086 2.24731445 C6.96336386 5.60236771 6.9503407 8.95740744 6.9375 12.3125 C6.92912109 13.47974609 6.92074219 14.64699219 6.91210938 15.84960938 C6.90888672 16.96787109 6.90566406 18.08613281 6.90234375 19.23828125 C6.89710693 20.26993408 6.89187012 21.30158691 6.88647461 22.36450195 C6.88365 25.10946274 6.88365 25.10946274 8 28 C7.67 28.66 7.34 29.32 7 30 C3.71667739 29.4339099 2.02239129 28.6799633 0 26 C-0.34057617 23.27270508 -0.34057617 23.27270508 -0.29296875 20.01953125 C-0.28330078 18.85615234 -0.27363281 17.69277344 -0.26367188 16.49414062 C-0.2259668 14.67172852 -0.2259668 14.67172852 -0.1875 12.8125 C-0.17396484 11.58595703 -0.16042969 10.35941406 -0.14648438 9.09570312 C-0.11108741 6.06336336 -0.0617076 3.03190004 0 0 Z " fill="#3C2A5E" transform="translate(311,233)"/>
<path d="M0 0 C2.64 0 5.28 0 8 0 C8 4.62 8 9.24 8 14 C2.58295682 16.70852159 1.1832035 17.37277345 -4.375 17.1875 C-5.96441406 17.14689453 -5.96441406 17.14689453 -7.5859375 17.10546875 C-8.38257813 17.07066406 -9.17921875 17.03585937 -10 17 C-9.67 16.34 -9.34 15.68 -9 15 C-6.4375 14.375 -6.4375 14.375 -4 14 C-4 13.34 -4 12.68 -4 12 C-5.32 11.67 -6.64 11.34 -8 11 C-8 10.67 -8 10.34 -8 10 C-7.195625 9.87625 -6.39125 9.7525 -5.5625 9.625 C-4.716875 9.41875 -3.87125 9.2125 -3 9 C-2.67 8.34 -2.34 7.68 -2 7 C-1.34 7 -0.68 7 0 7 C-0.2784375 5.824375 -0.2784375 5.824375 -0.5625 4.625 C-1 2 -1 2 0 0 Z " fill="#362459" transform="translate(297,248)"/>
<path d="M0 0 C0.66 0.33 1.32 0.66 2 1 C2 1.99 2 2.98 2 4 C2.33 4.33 2.66 4.66 3 5 C3.4857159 10.3654663 3.06149392 14.97510856 1 20 C-0.65 20.33 -2.3 20.66 -4 21 C-4.33 21.99 -4.66 22.98 -5 24 C-5 23.01 -5 22.02 -5 21 C-5.99 20.67 -6.98 20.34 -8 20 C-7.34 20 -6.68 20 -6 20 C-6 19.34 -6 18.68 -6 18 C-6.66 17.67 -7.32 17.34 -8 17 C-7.67 15.989375 -7.34 14.97875 -7 13.9375 C-6.17028324 11.10263439 -6 9.24931947 -6 6.1875 C-6 3 -6 3 -4 1 C-1.875 1.375 -1.875 1.375 0 2 C0 1.34 0 0.68 0 0 Z " fill="#463569" transform="translate(108,245)"/>
<path d="M0 0 C0.68707555 2.49064888 1 4.37886292 1 7 C2.32 6.67 3.64 6.34 5 6 C5 6.66 5 7.32 5 8 C8.63 8 12.26 8 16 8 C16.33 6.68 16.66 5.36 17 4 C18.85546875 2.98828125 18.85546875 2.98828125 21.1875 2.3125 C21.99445313 2.0753125 22.80140625 1.838125 23.6328125 1.59375 C26.40587527 0.8981963 29.16403691 0.36358501 32 0 C32 2.31 32 4.62 32 7 C30.68 6.67 29.36 6.34 28 6 C28 6.66 28 7.32 28 8 C27.01 8 26.02 8 25 8 C25 8.66 25 9.32 25 10 C16.42 10 7.84 10 -1 10 C-1 1 -1 1 0 0 Z " fill="#332350" transform="translate(348,255)"/>
<path d="M0 0 C0.33 0 0.66 0 1 0 C1.33 3.63 1.66 7.26 2 11 C2.66 11 3.32 11 4 11 C4.33 12.32 4.66 13.64 5 15 C5.99 14.67 6.98 14.34 8 14 C8.33 9.38 8.66 4.76 9 0 C9.33 0 9.66 0 10 0 C10 8.58 10 17.16 10 26 C6.7 26 3.4 26 0 26 C0 17.42 0 8.84 0 0 Z " fill="#634E7D" transform="translate(412,239)"/>
<path d="M0 0 C4.875 4.75 4.875 4.75 6 7 C7.32 7 8.64 7 10 7 C10.33 9.31 10.66 11.62 11 14 C10.01 13.01 9.02 12.02 8 11 C7.67 11.66 7.34 12.32 7 13 C6.34 12.67 5.68 12.34 5 12 C5 12.66 5 13.32 5 14 C6.32 14 7.64 14 9 14 C9.33 14.99 9.66 15.98 10 17 C9.34 17 8.68 17 8 17 C8 17.66 8 18.32 8 19 C8.99 19.33 9.98 19.66 11 20 C9.35 20.66 7.7 21.32 6 22 C5.0158875 20.73299277 4.03788503 19.4612381 3.0625 18.1875 C2.24458984 17.12595703 2.24458984 17.12595703 1.41015625 16.04296875 C0 14 0 14 -1 11 C-1.66 11 -2.32 11 -3 11 C-2.67 8.69 -2.34 6.38 -2 4 C-1.01 4 -0.02 4 1 4 C0.67 2.68 0.34 1.36 0 0 Z " fill="#433367" transform="translate(232,237)"/>
<path d="M0 0 C1.2065625 0.0309375 1.2065625 0.0309375 2.4375 0.0625 C3.47137512 8.0750322 3.54216648 15.99155177 3.4375 24.0625 C2.7775 24.0625 2.1175 24.0625 1.4375 24.0625 C1.1075 23.0725 0.7775 22.0825 0.4375 21.0625 C-1.57758358 20.32926204 -1.57758358 20.32926204 -3.5625 20.0625 C-3.59138514 16.91668577 -3.60925923 13.77090531 -3.625 10.625 C-3.63337891 9.72716797 -3.64175781 8.82933594 -3.65039062 7.90429688 C-3.65361328 7.05029297 -3.65683594 6.19628906 -3.66015625 5.31640625 C-3.66801147 4.13026733 -3.66801147 4.13026733 -3.67602539 2.92016602 C-3.49546255 -0.03446337 -2.96954506 0.07242793 0 0 Z " fill="#3B285F" transform="translate(336.5625,232.9375)"/>
<path d="M0 0 C6.15234375 -0.09765625 6.15234375 -0.09765625 8 0 C9 1 9 1 9.09765625 3.50390625 C9.08605469 4.51324219 9.07445312 5.52257812 9.0625 6.5625 C9.05347656 7.57441406 9.04445312 8.58632812 9.03515625 9.62890625 C9.02355469 10.41136719 9.01195312 11.19382813 9 12 C7.68 12 6.36 12 5 12 C4.67 13.32 4.34 14.64 4 16 C3.34 16 2.68 16 2 16 C2.83333333 18.16666667 2.83333333 18.16666667 5 19 C4.34 19.99 3.68 20.98 3 22 C2.34 21.67 1.68 21.34 1 21 C-0.32227764 16.65062133 -0.11479353 12.18876608 -0.0625 7.6875 C-0.05798828 6.94693359 -0.05347656 6.20636719 -0.04882812 5.44335938 C-0.03712175 3.62887101 -0.01918898 1.81442466 0 0 Z " fill="#352358" transform="translate(242,231)"/>
<path d="M0 0 C6.0546875 -0.1953125 6.0546875 -0.1953125 8 0 C10.5654594 2.5654594 10.54046087 4.47686668 11 8 C10.01 8 9.02 8 8 8 C8.33 9.65 8.66 11.3 9 13 C8.34 13 7.68 13 7 13 C7 16.96 7 20.92 7 25 C6.34 25.33 5.68 25.66 5 26 C3.875 20.375 3.875 20.375 5 17 C4.505 15.824375 4.505 15.824375 4 14.625 C2.84338367 11.58888213 3.12201294 10.07295473 4 7 C2.02 7.99 2.02 7.99 0 9 C0 6.03 0 3.06 0 0 Z " fill="#36255B" transform="translate(222,233)"/>
<path d="M0 0 C2.31 0 4.62 0 7 0 C7.66 1.98 8.32 3.96 9 6 C9.66 5.67 10.32 5.34 11 5 C11 6.32 11 7.64 11 9 C11.66 8.01 12.32 7.02 13 6 C13 8.64 13 11.28 13 14 C12.236875 13.835 11.47375 13.67 10.6875 13.5 C7.96403764 12.90854604 7.96403764 12.90854604 5 13 C4.67 11.35 4.34 9.7 4 8 C2.40139351 7.44213732 0.79582095 6.90420432 -0.8125 6.375 C-1.70582031 6.07335937 -2.59914063 5.77171875 -3.51953125 5.4609375 C-6.24094317 4.65696631 -6.24094317 4.65696631 -9 7 C-9 5.68 -9 4.36 -9 3 C-4.545 2.505 -4.545 2.505 0 2 C0 1.34 0 0.68 0 0 Z " fill="#36245A" transform="translate(74,231)"/>
<path d="M0 0 C5.03858199 0.10652393 9.47477002 2.33545973 14 4.375 C13.45276317 7.74962715 12.9451 9.45735 11 12.375 C9.5164999 11.95242724 8.03823576 11.51143678 6.5625 11.0625 C5.73878906 10.81886719 4.91507812 10.57523438 4.06640625 10.32421875 C3.38449219 10.01097656 2.70257813 9.69773438 2 9.375 C1.67 8.385 1.34 7.395 1 6.375 C0.34 5.715 -0.32 5.055 -1 4.375 C-0.67 3.715 -0.34 3.055 0 2.375 C-1.65 2.375 -3.3 2.375 -5 2.375 C-3 0.375 -3 0.375 0 0 Z " fill="#514275" transform="translate(291,230.625)"/>
<path d="M0 0 C1.63001953 0.15275391 1.63001953 0.15275391 3.29296875 0.30859375 C4.54013672 0.43427734 4.54013672 0.43427734 5.8125 0.5625 C5.8125 2.8725 5.8125 5.1825 5.8125 7.5625 C0.8625 7.5625 -4.0875 7.5625 -9.1875 7.5625 C-9.1875 6.2425 -9.1875 4.9225 -9.1875 3.5625 C-9.8475 3.2325 -10.5075 2.9025 -11.1875 2.5625 C-10.5275 2.5625 -9.8675 2.5625 -9.1875 2.5625 C-9.1875 1.9025 -9.1875 1.2425 -9.1875 0.5625 C-5.76060364 -0.57979879 -3.57647782 -0.34611076 0 0 Z " fill="#655885" transform="translate(265.1875,246.4375)"/>
<path d="M0 0 C5.77807024 -0.2358396 10.51324804 0.13216954 16 2 C16 4.31 16 6.62 16 9 C11.71 9 7.42 9 3 9 C3 7.02 3 5.04 3 3 C2.01 2.67 1.02 2.34 0 2 C0 1.34 0 0.68 0 0 Z " fill="#4C3C6B" transform="translate(354,243)"/>
<path d="M0 0 C0 1.98 0 3.96 0 6 C-4.62 6 -9.24 6 -14 6 C-14.33 6.66 -14.66 7.32 -15 8 C-17.5 6.625 -17.5 6.625 -20 5 C-20 4.34 -20 3.68 -20 3 C-18.68 3 -17.36 3 -16 3 C-16 2.34 -16 1.68 -16 1 C-10.62915894 0.31798844 -5.41499441 -0.11521265 0 0 Z " fill="#36235B" transform="translate(371,232)"/>
<path d="M0 0 C5.28 0 10.56 0 16 0 C15 2 15 2 13 3 C11.68 3 10.36 3 9 3 C10.65 4.65 12.3 6.3 14 8 C13.01 8.495 13.01 8.495 12 9 C11.67 14.94 11.34 20.88 11 27 C10.67 27 10.34 27 10 27 C10 20.07 10 13.14 10 6 C6.37 6.33 2.74 6.66 -1 7 C-0.67 4.69 -0.34 2.38 0 0 Z " fill="#362555" transform="translate(403,233)"/>
<path d="M0 0 C2.64 0 5.28 0 8 0 C8 3.63 8 7.26 8 11 C7.67 11 7.34 11 7 11 C7 7.7 7 4.4 7 1 C5.35 1.33 3.7 1.66 2 2 C2 8.27 2 14.54 2 21 C3.32 21.33 4.64 21.66 6 22 C6 22.99 6 23.98 6 25 C6.66 25.33 7.32 25.66 8 26 C3.56923077 31.78461538 3.56923077 31.78461538 0.6875 32.875 C0.130625 32.91625 -0.42625 32.9575 -1 33 C-1 32.01 -1 31.02 -1 30 C-0.34 29.67 0.32 29.34 1 29 C0.67 28.34 0.34 27.68 0 27 C-0.08527628 24.96767366 -0.10716135 22.93252994 -0.09765625 20.8984375 C-0.09443359 19.68671875 -0.09121094 18.475 -0.08789062 17.2265625 C-0.07951172 15.95554688 -0.07113281 14.68453125 -0.0625 13.375 C-0.05798828 12.09625 -0.05347656 10.8175 -0.04882812 9.5 C-0.03701203 6.33328708 -0.02053815 3.16666644 0 0 Z " fill="#493969" transform="translate(332,232)"/>
<path d="M0 0 C2.24431696 0.4987371 4.25046219 1.10545777 6.375 2 C9.24111871 3.09185475 11.9692039 3.57709822 15 4 C15 4.33 15 4.66 15 5 C13.02 5.33 11.04 5.66 9 6 C8.67 7.65 8.34 9.3 8 11 C4.0507432 10.44894091 0.65079826 9.61064629 -3 8 C-3 6.35 -3 4.7 -3 3 C-2.34 3 -1.68 3 -1 3 C-0.67 2.01 -0.34 1.02 0 0 Z " fill="#544374" transform="translate(434,254)"/>
<path d="M0 0 C1.485 0.99 1.485 0.99 3 2 C3.99 2 4.98 2 6 2 C6.33 3.65 6.66 5.3 7 7 C9.97 7.495 9.97 7.495 13 8 C13 11 13 11 12 14 C9.04335481 15.4783226 6.25770263 15.06032783 3 15 C3.99 14.67 4.98 14.34 6 14 C5.67 13.01 5.34 12.02 5 11 C4.175 10.5875 3.35 10.175 2.5 9.75 C0 8 0 8 -0.875 4.375 C-0.91625 3.26125 -0.9575 2.1475 -1 1 C-0.67 0.67 -0.34 0.34 0 0 Z " fill="#352358" transform="translate(106,268)"/>
<path d="M0 0 C1.32 0.33 2.64 0.66 4 1 C3.65358932 10.07595993 3.65358932 10.07595993 1.1875 13.5625 C-1.00232567 15.0015283 -2.38551155 15.83132333 -5 16 C-5.99 15.34 -6.98 14.68 -8 14 C-6.71480435 11.13302508 -5.42870746 9.02392288 -3 7 C-2.34 7 -1.68 7 -1 7 C-0.31292445 4.50935112 0 2.62113708 0 0 Z " fill="#463867" transform="translate(399,249)"/>
<path d="M0 0 C0.4125 0.45375 0.825 0.9075 1.25 1.375 C3.06408095 3.05950374 4.75285627 3.99265971 7 5 C6.01 5.495 6.01 5.495 5 6 C3.86649466 8.01669827 3.86649466 8.01669827 3 10 C3.639375 10.28875 4.27875 10.5775 4.9375 10.875 C7 12 7 12 8 14 C6.58318366 13.68817931 5.16655349 13.37551263 3.75 13.0625 C2.56664062 12.80146484 2.56664062 12.80146484 1.359375 12.53515625 C-0.76878703 12.052444 -2.88532842 11.53836822 -5 11 C-5.33 9.02 -5.66 7.04 -6 5 C-5.01 5 -4.02 5 -3 5 C-3 4.34 -3 3.68 -3 3 C-1.5 1.375 -1.5 1.375 0 0 Z " fill="#554372" transform="translate(385,240)"/>
<path d="M0 0 C0.66 0 1.32 0 2 0 C2.02707139 2.24993359 2.04642829 4.49996095 2.0625 6.75 C2.07410156 8.00296875 2.08570313 9.2559375 2.09765625 10.546875 C2.02021027 13.28536501 1.82780815 15.41880293 1 18 C2.65 18.33 4.3 18.66 6 19 C6 19.33 6 19.66 6 20 C-1.42857143 20.28571429 -1.42857143 20.28571429 -5 18 C-5 16.35 -5 14.7 -5 13 C-4.34 13 -3.68 13 -3 13 C-2.67 12.34 -2.34 11.68 -2 11 C-1.67 11.33 -1.34 11.66 -1 12 C-0.67 8.04 -0.34 4.08 0 0 Z M-8 15 C-6.5 16.25 -6.5 16.25 -5 18 C-5 19.32 -5 20.64 -5 22 C-6.65 22.33 -8.3 22.66 -10 23 C-9.34 20.36 -8.68 17.72 -8 15 Z " fill="#675887" transform="translate(129,229)"/>
<path d="M0 0 C1.32 0.33 2.64 0.66 4 1 C4.66 4.3 5.32 7.6 6 11 C5.01 11.33 4.02 11.66 3 12 C1.64691687 13.31328657 0.31129922 14.64499081 -1 16 C-1.33 16 -1.66 16 -2 16 C-2.05402274 13.89611431 -2.09280256 11.79183286 -2.125 9.6875 C-2.14820313 8.51574219 -2.17140625 7.34398437 -2.1953125 6.13671875 C-2 3 -2 3 0 0 Z " fill="#37225A" transform="translate(193,231)"/>
<path d="M0 0 C0.33 0.66 0.66 1.32 1 2 C3.12576782 2.46651207 3.12576782 2.46651207 5.5625 2.625 C6.38878906 2.69976562 7.21507812 2.77453125 8.06640625 2.8515625 C8.70449219 2.90054688 9.34257812 2.94953125 10 3 C10 4.65 10 6.3 10 8 C6.84493858 8.93619813 4.03413498 9.1057123 0.75 9.0625 C-0.14203125 9.05347656 -1.0340625 9.04445312 -1.953125 9.03515625 C-2.62859375 9.02355469 -3.3040625 9.01195312 -4 9 C-3.67 7.68 -3.34 6.36 -3 5 C-2.34 5 -1.68 5 -1 5 C-0.67 3.35 -0.34 1.7 0 0 Z " fill="#38255E" transform="translate(125,246)"/>
<path d="M0 0 C2.31 0.33 4.62 0.66 7 1 C7 2.32 7 3.64 7 5 C7.30830925 7.00401011 7.63729412 9.00511766 8 11 C7.34 11 6.68 11 6 11 C5.67 11.66 5.34 12.32 5 13 C5 11.35 5 9.7 5 8 C3.948125 8.33 2.89625 8.66 1.8125 9 C-1.38873357 9.83966782 -3.7411008 10.19750904 -7 10 C-4.74259377 7.66475218 -2.7194239 5.81294927 0 4 C0 3.01 0 2.02 0 1 C0 0.67 0 0.34 0 0 Z " fill="#463665" transform="translate(118,227)"/>
<path d="M0 0 C0.5775 0.515625 1.155 1.03125 1.75 1.5625 C0.75 3.5625 0.75 3.5625 -1.25 4.5625 C-0.92 5.2225 -0.59 5.8825 -0.25 6.5625 C-1.9 6.8925 -3.55 7.2225 -5.25 7.5625 C-5.58 8.8825 -5.91 10.2025 -6.25 11.5625 C-6.58 10.2425 -6.91 8.9225 -7.25 7.5625 C-9.56 6.9025 -11.87 6.2425 -14.25 5.5625 C-14.25 5.2325 -14.25 4.9025 -14.25 4.5625 C-12.6 4.5625 -10.95 4.5625 -9.25 4.5625 C-8.92 3.5725 -8.59 2.5825 -8.25 1.5625 C-7.59 1.5625 -6.93 1.5625 -6.25 1.5625 C-6.25 0.9025 -6.25 0.2425 -6.25 -0.4375 C-3.39943397 -1.55736523 -2.65876672 -1.69865651 0 0 Z " fill="#3B2764" transform="translate(455.25,246.4375)"/>
<path d="M0 0 C0.79921875 0.01804688 1.5984375 0.03609375 2.421875 0.0546875 C3.02515625 0.07789063 3.6284375 0.10109375 4.25 0.125 C4.25 1.115 4.25 2.105 4.25 3.125 C3.321875 3.310625 2.39375 3.49625 1.4375 3.6875 C-1.98787197 5.23227559 -2.2705979 5.51121238 -3.625 8.75 C-3.99625 9.86375 -4.3675 10.9775 -4.75 12.125 C-7.58374881 8.92163178 -8.2705537 6.34412747 -8.75 2.125 C-5.68753253 0.34090198 -3.52920727 -0.10380021 0 0 Z " fill="#42376E" transform="translate(48.75,249.875)"/>
<path d="M0 0 C0.33 1.98 0.66 3.96 1 6 C0.34 6 -0.32 6 -1 6 C-1 6.99 -1 7.98 -1 9 C-2.875 9.625 -2.875 9.625 -5 10 C-5.66 9.34 -6.32 8.68 -7 8 C-7.99 8.495 -7.99 8.495 -9 9 C-8.8125 5.6875 -8.8125 5.6875 -8 2 C-4.86024789 -0.64400178 -3.96767419 -1.32255806 0 0 Z " fill="#3C2760" transform="translate(178,239)"/>
<path d="M0 0 C2.31 0.33 4.62 0.66 7 1 C7.66 2.98 8.32 4.96 9 7 C6.75487738 8.12256131 5.48543351 8.13413762 3 8.125 C1.948125 8.12886719 1.948125 8.12886719 0.875 8.1328125 C-1 8 -1 8 -3 7 C-3 6.34 -3 5.68 -3 5 C-2.34 5 -1.68 5 -1 5 C-0.67 3.35 -0.34 1.7 0 0 Z " fill="#37245D" transform="translate(284,232)"/>
<path d="M0 0 C2.64 0 5.28 0 8 0 C8.08075665 2.29109597 8.13907731 4.58299267 8.1875 6.875 C8.22230469 8.15117187 8.25710938 9.42734375 8.29296875 10.7421875 C8.19628906 11.81726563 8.09960938 12.89234375 8 14 C5 16 5 16 2 16 C2 15.01 2 14.02 2 13 C2.99 12.67 3.98 12.34 5 12 C5 8.37 5 4.74 5 1 C3.68 1 2.36 1 1 1 C1 3.64 1 6.28 1 9 C-0.32 9.33 -1.64 9.66 -3 10 C-2.67 9.01 -2.34 8.02 -2 7 C-1.34 7 -0.68 7 0 7 C-0.2784375 5.824375 -0.2784375 5.824375 -0.5625 4.625 C-1 2 -1 2 0 0 Z " fill="#5C4E71" transform="translate(297,248)"/>
<path d="M0 0 C2.50768524 0.61790086 4.37069054 0.43531302 6.921875 0.09765625 C7.72109375 -0.00417969 8.5203125 -0.10601562 9.34375 -0.2109375 C9.94703125 -0.29472656 10.5503125 -0.37851563 11.171875 -0.46484375 C11.501875 0.52515625 11.831875 1.51515625 12.171875 2.53515625 C11.109375 4.03515625 11.109375 4.03515625 9.171875 5.53515625 C4.99391218 5.91497105 1.67519521 6.00045566 -1.828125 3.53515625 C-2.488125 2.54515625 -3.148125 1.55515625 -3.828125 0.53515625 C-1.828125 -0.46484375 -1.828125 -0.46484375 0 0 Z " fill="#32205B" transform="translate(436.828125,245.46484375)"/>
<path d="M0 0 C0.66 0.66 1.32 1.32 2 2 C2.99 2 3.98 2 5 2 C6.33981486 2.3062434 7.67511887 2.63451555 9 3 C9 3.66 9 4.32 9 5 C7.04072937 6.7143618 5.04119788 8.38405168 3 10 C1.68 9.34 0.36 8.68 -1 8 C-1 7.34 -1 6.68 -1 6 C-2.32 6.33 -3.64 6.66 -5 7 C-3.35 4.69 -1.7 2.38 0 0 Z " fill="#564672" transform="translate(168,245)"/>
<path d="M0 0 C6.15234375 -0.09765625 6.15234375 -0.09765625 8 0 C9 1 9 1 9.0625 3.5625 C9.041875 4.366875 9.02125 5.17125 9 6 C8.360625 6.12375 7.72125 6.2475 7.0625 6.375 C6.0415625 6.684375 6.0415625 6.684375 5 7 C4.67 7.66 4.34 8.32 4 9 C3.34 8.01 2.68 7.02 2 6 C1.67 7.65 1.34 9.3 1 11 C0.67 11 0.34 11 0 11 C0 7.37 0 3.74 0 0 Z " fill="#5C4A7F" transform="translate(242,231)"/>
<path d="M0 0 C0.99 0.33 1.98 0.66 3 1 C3.33 2.65 3.66 4.3 4 6 C3.34 6 2.68 6 2 6 C2.99 7.32 3.98 8.64 5 10 C4.34 10.66 3.68 11.32 3 12 C-0.0625 11.75 -0.0625 11.75 -3 11 C-3.33 10.34 -3.66 9.68 -4 9 C-3.34 8.34 -2.68 7.68 -2 7 C-2.66 6.01 -3.32 5.02 -4 4 C-3.34 4 -2.68 4 -2 4 C-2 3.01 -2 2.02 -2 1 C-1.34 0.67 -0.68 0.34 0 0 Z " fill="#463470" transform="translate(50,257)"/>
<path d="M0 0 C0.33 0.99 0.66 1.98 1 3 C1.99 3 2.98 3 4 3 C4 3.66 4 4.32 4 5 C4.66 5 5.32 5 6 5 C6 4.34 6 3.68 6 3 C6.99 3.33 7.98 3.66 9 4 C8.34 4 7.68 4 7 4 C7 4.66 7 5.32 7 6 C6.34 6 5.68 6 5 6 C5 6.66 5 7.32 5 8 C4.34 8 3.68 8 3 8 C2.67 8.99 2.34 9.98 2 11 C1.01 11.33 0.02 11.66 -1 12 C-1.12375 10.865625 -1.2475 9.73125 -1.375 8.5625 C-1.58125 7.386875 -1.7875 6.21125 -2 5 C-2.66 4.67 -3.32 4.34 -4 4 C-2.68 2.68 -1.36 1.36 0 0 Z " fill="#514272" transform="translate(113,263)"/>
<path d="M0 0 C0.76183594 0.41572266 0.76183594 0.41572266 1.5390625 0.83984375 C5.7077298 3.0334683 9.24131553 4.52413155 14 5 C12.875 6.5 12.875 6.5 11 8 C7.8125 8.1875 7.8125 8.1875 5 8 C5.33 9.32 5.66 10.64 6 12 C3.64828869 11.40138258 1.3140622 10.73075648 -1 10 C-1.33 9.34 -1.66 8.68 -2 8 C-0.68 8.33 0.64 8.66 2 9 C1.814375 8.21625 1.62875 7.4325 1.4375 6.625 C1 4 1 4 2 2 C1.01 1.67 0.02 1.34 -1 1 C-0.67 0.67 -0.34 0.34 0 0 Z " fill="#66567F" transform="translate(378,253)"/>
<path d="M0 0 C0.33 0 0.66 0 1 0 C1 8.58 1 17.16 1 26 C-2.3 26 -5.6 26 -9 26 C-8.34 24.68 -7.68 23.36 -7 22 C-6.67 22.66 -6.34 23.32 -6 24 C-4.35 24 -2.7 24 -1 24 C-1.37125 23.0925 -1.7425 22.185 -2.125 21.25 C-3 18 -3 18 -2.09375 16.25 C-0.56365217 13.10237019 -0.56823865 10.22829574 -0.375 6.75 C-0.30023438 5.48671875 -0.22546875 4.2234375 -0.1484375 2.921875 C-0.09945313 1.95765625 -0.05046875 0.9934375 0 0 Z " fill="#675D7C" transform="translate(421,239)"/>
<path d="M0 0 C5.21979128 -0.1799928 9.07262981 0.02905192 14 2 C13.34 3.65 12.68 5.3 12 7 C9.69 7 7.38 7 5 7 C4.731875 6.360625 4.46375 5.72125 4.1875 5.0625 C3.11332248 2.66868314 3.11332248 2.66868314 0 2 C0 1.34 0 0.68 0 0 Z " fill="#362359" transform="translate(388,232)"/>
<path d="M0 0 C0.91062395 8.6846543 0.91062395 8.6846543 -1.23046875 11.77734375 C-3.86773445 14.02390342 -5.5058826 15 -9 15 C-9.75 13.25 -9.75 13.25 -10 11 C-8.3125 8.6875 -8.3125 8.6875 -6 7 C-3.75 7.25 -3.75 7.25 -2 8 C-1.84850702 4.37114676 -1.84850702 4.37114676 -3 1 C-1 0 -1 0 0 0 Z " fill="#584576" transform="translate(459,250)"/>
<path d="M0 0 C1.65322266 0.01740234 1.65322266 0.01740234 3.33984375 0.03515625 C4.99693359 0.04869141 4.99693359 0.04869141 6.6875 0.0625 C7.54214844 0.07410156 8.39679688 0.08570313 9.27734375 0.09765625 C8.30251348 2.64681135 7.80957342 3.8477488 5.2890625 5.03125 C-1.04108395 6.40366831 -1.04108395 6.40366831 -4.78515625 4.72265625 C-5.42453125 4.18640625 -6.06390625 3.65015625 -6.72265625 3.09765625 C-5.73265625 2.43765625 -4.74265625 1.77765625 -3.72265625 1.09765625 C-2.72265625 0.09765625 -2.72265625 0.09765625 0 0 Z " fill="#48386E" transform="translate(285.72265625,258.90234375)"/>
<path d="M0 0 C1.65 0.33 3.3 0.66 5 1 C5 5.62 5 10.24 5 15 C4.67 15 4.34 15 4 15 C3.67 13.35 3.34 11.7 3 10 C1.02 10.99 1.02 10.99 -1 12 C-0.67 10.68 -0.34 9.36 0 8 C-0.66 8 -1.32 8 -2 8 C-1.47731534 5.23723823 -0.89130413 2.6739124 0 0 Z " fill="#4A386E" transform="translate(246,242)"/>
<path d="M0 0 C6.53966006 0.48441926 6.53966006 0.48441926 8.5625 2.75 C9.13989294 5.71944939 8.33094459 7.33811081 7 10 C3.26512223 9.5020163 1.18762365 9.12508244 -2 7 C-0.35 7 1.3 7 3 7 C3.33 5.35 3.66 3.7 4 2 C2.68 2.33 1.36 2.66 0 3 C0 2.01 0 1.02 0 0 Z " fill="#483B68" transform="translate(450,232)"/>
<path d="M0 0 C3.96 0 7.92 0 12 0 C11.67 1.65 11.34 3.3 11 5 C7.11427053 7.09231587 3.35699967 8.33984854 -1 9 C-0.67 8.34 -0.34 7.68 0 7 C0.99 7 1.98 7 3 7 C3.25030977 4.58380177 3.25030977 4.58380177 3 2 C2.01 1.34 1.02 0.68 0 0 Z " fill="#4E3C6D" transform="translate(170,232)"/>
<path d="M0 0 C-0.99 1.32 -1.98 2.64 -3 4 C-2.01 4.33 -1.02 4.66 0 5 C0 5.33 0 5.66 0 6 C-3.3 6 -6.6 6 -10 6 C-10.66 4.35 -11.32 2.7 -12 1 C-10.35 1 -8.7 1 -7 1 C-7 0.67 -7 0.34 -7 0 C-2.25 -1.125 -2.25 -1.125 0 0 Z " fill="#372757" transform="translate(394,259)"/>
<path d="M0 0 C0.99 0 1.98 0 3 0 C2.67 1.32 2.34 2.64 2 4 C2.66 4.33 3.32 4.66 4 5 C3.125 11.75 3.125 11.75 2 14 C1.34 13.67 0.68 13.34 0 13 C0.33 11.68 0.66 10.36 1 9 C-1.28705831 7.85647084 -2.59264762 7.89665561 -5.125 7.9375 C-7.043125 7.9684375 -7.043125 7.9684375 -9 8 C-9 7.34 -9 6.68 -9 6 C-6.36 5.34 -3.72 4.68 -1 4 C-0.67 2.68 -0.34 1.36 0 0 Z " fill="#554571" transform="translate(135,249)"/>
<path d="M0 0 C3.63 0 7.26 0 11 0 C11 2.31 11 4.62 11 7 C8.03 6.67 5.06 6.34 2 6 C2.33 5.34 2.66 4.68 3 4 C3 3.34 3 2.68 3 2 C2.01 1.34 1.02 0.68 0 0 Z " fill="#544770" transform="translate(260,247)"/>
<path d="M0 0 C2.31 0.66 4.62 1.32 7 2 C7 2.66 7 3.32 7 4 C6.34 4 5.68 4 5 4 C4.67 4.99 4.34 5.98 4 7 C3.67 6.34 3.34 5.68 3 5 C3 6.98 3 8.96 3 11 C2.01 11 1.02 11 0 11 C-2.08387097 6.58709677 -2.08387097 6.58709677 -1.6875 3.8125 C-1 2 -1 2 0 0 Z " fill="#2E2058" transform="translate(99,226)"/>
<path d="M0 0 C0.66 0.33 1.32 0.66 2 1 C1.67 1.66 1.34 2.32 1 3 C1.99 3.33 2.98 3.66 4 4 C1.54724859 5.2263757 -0.0505781 5.11415314 -2.7890625 5.09765625 C-3.73007813 5.09443359 -4.67109375 5.09121094 -5.640625 5.08789062 C-6.62546875 5.07951172 -7.6103125 5.07113281 -8.625 5.0625 C-9.61757812 5.05798828 -10.61015625 5.05347656 -11.6328125 5.04882812 C-14.0886016 5.03702145 -16.54427104 5.020554 -19 5 C-14.60896414 2.07264276 -10.33205011 2.55756657 -5.15234375 2.34375 C-1.90508301 2.32260776 -1.90508301 2.32260776 0 0 Z " fill="#342651" transform="translate(176,260)"/>
<path d="M0 0 C0.99 0.33 1.98 0.66 3 1 C4.1875 4.0625 4.1875 4.0625 5 7 C5.66 7 6.32 7 7 7 C6.34 8.65 5.68 10.3 5 12 C4.46375 11.195625 3.9275 10.39125 3.375 9.5625 C0.56894631 6.53491576 -0.96825194 6.27489191 -5 6 C-4.34 5.34 -3.68 4.68 -3 4 C-1.98758315 2.67607028 -0.98560611 1.34400833 0 0 Z " fill="#38265A" transform="translate(390,245)"/>
<path d="M0 0 C0.99 0 1.98 0 3 0 C3.33 1.32 3.66 2.64 4 4 C4.66 3.01 5.32 2.02 6 1 C6 3.64 6 6.28 6 9 C5.236875 8.835 4.47375 8.67 3.6875 8.5 C0.96403764 7.90854604 0.96403764 7.90854604 -2 8 C-1.125 1.125 -1.125 1.125 0 0 Z " fill="#34215A" transform="translate(81,236)"/>
<path d="M0 0 C-0.99 0.33 -1.98 0.66 -3 1 C-3 2.65 -3 4.3 -3 6 C-4.65 6.33 -6.3 6.66 -8 7 C-8.66 6.01 -9.32 5.02 -10 4 C-9.67 3.01 -9.34 2.02 -9 1 C-9.66 0.67 -10.32 0.34 -11 0 C-6.94952424 -1.35015859 -4.2079832 -0.62084998 0 0 Z " fill="#38265D" transform="translate(176,233)"/>
<path d="M0 0 C0.66 0.66 1.32 1.32 2 2 C1.34 3.98 0.68 5.96 0 8 C-3.96 8 -7.92 8 -12 8 C-11.67 7.34 -11.34 6.68 -11 6 C-9.34608154 5.60828247 -7.67654729 5.27942455 -6 5 C-5.01 4.67 -4.02 4.34 -3 4 C-2.67 3.01 -2.34 2.02 -2 1 C-1.34 0.67 -0.68 0.34 0 0 Z " fill="#3D2F5C" transform="translate(299,257)"/>
<path d="M0 0 C0.99 0.66 1.98 1.32 3 2 C3 2.66 3 3.32 3 4 C3.66 4.33 4.32 4.66 5 5 C4.38125 5.28875 3.7625 5.5775 3.125 5.875 C0.86674235 6.93720042 0.86674235 6.93720042 -1 9 C-3.1640625 8.9765625 -3.1640625 8.9765625 -5.625 8.625 C-6.85089844 8.45871094 -6.85089844 8.45871094 -8.1015625 8.2890625 C-9.04128906 8.14597656 -9.04128906 8.14597656 -10 8 C-7.66785852 6.79371992 -5.50357861 5.8345262 -3 5 C-3.33 4.34 -3.66 3.68 -4 3 C-2.68 2.01 -1.36 1.02 0 0 Z " fill="#352555" transform="translate(330,257)"/>
<path d="M0 0 C0.66 1.32 1.32 2.64 2 4 C1.2575 3.773125 0.515 3.54625 -0.25 3.3125 C-3.05914993 2.70523302 -3.05914993 2.70523302 -5.3125 4.4375 C-5.869375 4.953125 -6.42625 5.46875 -7 6 C-7.66 5.34 -8.32 4.68 -9 4 C-9.99 5.32 -10.98 6.64 -12 8 C-12.93423645 4.98968256 -13.04449911 4.13349732 -12 1 C-11.05125 1.020625 -10.1025 1.04125 -9.125 1.0625 C-5.60414781 0.99208296 -3.64101702 0 0 0 Z " fill="#594876" transform="translate(103,224)"/>
<path d="M0 0 C0 2.31 0 4.62 0 7 C-1.32 6.67 -2.64 6.34 -4 6 C-4 6.66 -4 7.32 -4 8 C-4.66 8 -5.32 8 -6 8 C-6.33 6.02 -6.66 4.04 -7 2 C-4 0 -4 0 0 0 Z " fill="#402D67" transform="translate(380,255)"/>
<path d="M0 0 C2.6875 1.4375 2.6875 1.4375 5 3 C4.67 4.32 4.34 5.64 4 7 C1.36 6.67 -1.28 6.34 -4 6 C-3.67 4.35 -3.34 2.7 -3 1 C-2.01 0.67 -1.02 0.34 0 0 Z " fill="#322358" transform="translate(225,259)"/>
<path d="M0 0 C4.875 4.625 4.875 4.625 6 8 C5.2575 8.12375 4.515 8.2475 3.75 8.375 C1.19858515 8.95486701 -0.7267573 9.73708739 -3 11 C-2.67 8.69 -2.34 6.38 -2 4 C-1.01 4 -0.02 4 1 4 C0.67 2.68 0.34 1.36 0 0 Z " fill="#574776" transform="translate(232,237)"/>
<path d="M0 0 C3.71888239 0.50712033 6.73454239 1.11608215 10 3 C5.47621396 6.01585736 3.21315314 6.04263063 -2 5 C-1.34 3.35 -0.68 1.7 0 0 Z " fill="#3B2761" transform="translate(92,220)"/>
<path d="M0 0 C2.31 0 4.62 0 7 0 C6.67 2.64 6.34 5.28 6 8 C3.69 7.67 1.38 7.34 -1 7 C-0.34 6.34 0.32 5.68 1 5 C0.67 4.01 0.34 3.02 0 2 C0 1.34 0 0.68 0 0 Z " fill="#4F4168" transform="translate(425,232)"/>
<path d="M0 0 C0.99 0.99 1.98 1.98 3 3 C2.01 3.495 2.01 3.495 1 4 C0.07606836 5.86196946 0.07606836 5.86196946 0 8 C1.35444301 9.77190909 1.35444301 9.77190909 3 11 C1.68 11.33 0.36 11.66 -1 12 C-3.17175481 8.74236778 -3.46043998 7.77560787 -3 4 C-1.5 1.6875 -1.5 1.6875 0 0 Z " fill="#38255E" transform="translate(47,254)"/>
<path d="M0 0 C-0.61875 0.061875 -1.2375 0.12375 -1.875 0.1875 C-4.27761141 0.828919 -4.27761141 0.828919 -5.25 3.5625 C-5.4975 4.366875 -5.745 5.17125 -6 6 C-7.65 6 -9.3 6 -11 6 C-11 5.34 -11 4.68 -11 4 C-11.99 4.33 -12.98 4.66 -14 5 C-14 4.34 -14 3.68 -14 3 C-9.07015675 0.96006486 -5.42039575 -0.40652968 0 0 Z " fill="#5F4C81" transform="translate(449,231)"/>
<path d="M0 0 C-0.33 0.99 -0.66 1.98 -1 3 C-1.66 2.67 -2.32 2.34 -3 2 C-3 2.66 -3 3.32 -3 4 C-1.68 4.33 -0.36 4.66 1 5 C1 6.65 1 8.3 1 10 C-0.65 10.33 -2.3 10.66 -4 11 C-3.34 9.68 -2.68 8.36 -2 7 C-2.495 6.566875 -2.99 6.13375 -3.5 5.6875 C-5 4 -5 4 -5 1 C-2 0 -2 0 0 0 Z " fill="#2E1D56" transform="translate(357,241)"/>
<path d="M0 0 C0.33 0 0.66 0 1 0 C1.22127098 2.29045368 1.4266504 4.58244764 1.625 6.875 C1.74101562 8.15117187 1.85703125 9.42734375 1.9765625 10.7421875 C1.98429688 11.81726563 1.99203125 12.89234375 2 14 C1.34 14.66 0.68 15.32 0 16 C-1.32 15.34 -2.64 14.68 -4 14 C-4 13.01 -4 12.02 -4 11 C-3.34 11 -2.68 11 -2 11 C-1.34 7.37 -0.68 3.74 0 0 Z " fill="#352458" transform="translate(249,244)"/>
<path d="M0 0 C0.99 0.66 1.98 1.32 3 2 C2.01 2.495 2.01 2.495 1 3 C0.93941406 4.22976562 0.87882813 5.45953125 0.81640625 6.7265625 C0.73194995 8.35938427 0.64730453 9.99219627 0.5625 11.625 C0.50352539 12.83736328 0.50352539 12.83736328 0.44335938 14.07421875 C0.21203918 18.45150865 -0.16920917 22.68547281 -1 27 C-1.33 27 -1.66 27 -2 27 C-2 18.42 -2 9.84 -2 1 C-1.34 0.67 -0.68 0.34 0 0 Z " fill="#6B6083" transform="translate(191,231)"/>
<path d="M0 0 C0.99 0 1.98 0 3 0 C3.625 1.875 3.625 1.875 4 4 C2.03896546 5.96103454 0.49623863 6.87266643 -2 8 C-2.33 8 -2.66 8 -3 8 C-3 6.35 -3 4.7 -3 3 C-2.34 3 -1.68 3 -1 3 C-0.67 2.01 -0.34 1.02 0 0 Z " fill="#4C446E" transform="translate(434,254)"/>
<path d="M0 0 C0.99 0 1.98 0 3 0 C4.33332095 2.6666419 3.67102033 4.16680303 3 7 C2.34 7 1.68 7 1 7 C0.67 7.99 0.34 8.98 0 10 C-0.66 10 -1.32 10 -2 10 C-1.125 2.25 -1.125 2.25 0 0 Z " fill="#2C1D4C" transform="translate(275,239)"/>
<path d="M0 0 C0.66 0.99 1.32 1.98 2 3 C-0.97 5.475 -0.97 5.475 -4 8 C-4.66 6.68 -5.32 5.36 -6 4 C-4 1 -4 1 -1.875 0.3125 C-1.25625 0.209375 -0.6375 0.10625 0 0 Z " fill="#332355" transform="translate(449,231)"/>
<path d="M0 0 C0 1.32 0 2.64 0 4 C-2.31 4.33 -4.62 4.66 -7 5 C-6.67 3.35 -6.34 1.7 -6 0 C-2.25 -1.125 -2.25 -1.125 0 0 Z " fill="#39265E" transform="translate(371,259)"/>
<path d="M0 0 C0.99 0.33 1.98 0.66 3 1 C3.33 2.98 3.66 4.96 4 7 C3.34 7 2.68 7 2 7 C1.67 7.99 1.34 8.98 1 10 C0 6.125 0 6.125 0 5 C-1.65 4.67 -3.3 4.34 -5 4 C-2.6875 1.9375 -2.6875 1.9375 0 0 Z " fill="#321F59" transform="translate(175,238)"/>
<path d="M0 0 C1.32 0.33 2.64 0.66 4 1 C3.45276317 4.37462715 2.9451 6.08235 1 9 C-1.475 8.01 -1.475 8.01 -4 7 C-3.01 6.67 -2.02 6.34 -1 6 C-1 5.34 -1 4.68 -1 4 C-0.34 4 0.32 4 1 4 C0.67 2.68 0.34 1.36 0 0 Z " fill="#6F6685" transform="translate(301,234)"/>
<path d="M0 0 C3.96 0 7.92 0 12 0 C12 2.31 12 4.62 12 7 C11.67 6.34 11.34 5.68 11 5 C8.47266765 4.34444881 8.47266765 4.34444881 6 4 C6.66 3.67 7.32 3.34 8 3 C8 2.34 8 1.68 8 1 C5.36 1 2.72 1 0 1 C0 0.67 0 0.34 0 0 Z " fill="#615480" transform="translate(204,232)"/>
<path d="M0 0 C1 2 1 2 1 5 C2.98 5 4.96 5 7 5 C5.68 6.65 4.36 8.3 3 10 C2.608125 9.525625 2.21625 9.05125 1.8125 8.5625 C-0.40808374 6.64820367 -2.13375709 6.38733012 -5 6 C-4.34 5.67 -3.68 5.34 -3 5 C-3 4.34 -3 3.68 -3 3 C-2.34 3 -1.68 3 -1 3 C-0.67 2.01 -0.34 1.02 0 0 Z " fill="#6B5D85" transform="translate(134,263)"/>
<path d="M0 0 C2.31 0.66 4.62 1.32 7 2 C8.26264601 6.29299643 7.62950412 8.87831311 6 13 C5.34 13 4.68 13 4 13 C4.33 9.37 4.66 5.74 5 2 C3.68 2.33 2.36 2.66 1 3 C0.67 2.01 0.34 1.02 0 0 Z " fill="#6F6683" transform="translate(140,250)"/>
<path d="M0 0 C0.66 0.99 1.32 1.98 2 3 C2.66 2.67 3.32 2.34 4 2 C6.125 2.4375 6.125 2.4375 8 3 C8 4.98 8 6.96 8 9 C7.1646875 8.2265625 7.1646875 8.2265625 6.3125 7.4375 C4.05914993 5.70523302 4.05914993 5.70523302 1.25 6.3125 C0.5075 6.539375 -0.235 6.76625 -1 7 C-0.67 4.69 -0.34 2.38 0 0 Z " fill="#5E4F7D" transform="translate(78,241)"/>
<path d="M0 0 C0.66 0.33 1.32 0.66 2 1 C1.67 2.32 1.34 3.64 1 5 C1.66 5.33 2.32 5.66 3 6 C3.99 5.67 4.98 5.34 6 5 C6.33 5.99 6.66 6.98 7 8 C-0.75 8.125 -0.75 8.125 -3 7 C-3 6.34 -3 5.68 -3 5 C-2.34 5 -1.68 5 -1 5 C-0.67 3.35 -0.34 1.7 0 0 Z " fill="#322055" transform="translate(284,232)"/>
<path d="M0 0 C1.875 0.125 1.875 0.125 4 1 C5.75 3.5625 5.75 3.5625 7 6 C6.38125 5.814375 5.7625 5.62875 5.125 5.4375 C2.95839822 4.76313824 2.95839822 4.76313824 1 6 C1 5.34 1 4.68 1 4 C0.01 4.33 -0.98 4.66 -2 5 C-1.125 1.125 -1.125 1.125 0 0 Z " fill="#544770" transform="translate(93,216)"/>
<path d="M0 0 C-2.57516622 2.63746863 -4.54331396 3.21887499 -8.109375 3.29296875 C-9.65652231 3.27313353 -11.20353396 3.2375101 -12.75 3.1875 C-13.54277344 3.17396484 -14.33554688 3.16042969 -15.15234375 3.14648438 C-17.10185564 3.11125223 -19.05101626 3.05744821 -21 3 C-21 2.67 -21 2.34 -21 2 C-20.11957031 1.95101563 -19.23914063 1.90203125 -18.33203125 1.8515625 C-17.17058594 1.77679688 -16.00914063 1.70203125 -14.8125 1.625 C-13.08966797 1.52058594 -13.08966797 1.52058594 -11.33203125 1.4140625 C-8.03100566 1.14819157 -8.03100566 1.14819157 -5.26171875 -0.1015625 C-3 -1 -3 -1 0 0 Z " fill="#6D6484" transform="translate(124,281)"/>
<path d="M0 0 C0.66 0.33 1.32 0.66 2 1 C1.01 3.31 0.02 5.62 -1 8 C-1.99 8 -2.98 8 -4 8 C-4 6.02 -4 4.04 -4 2 C-2.125 0.9375 -2.125 0.9375 0 0 Z " fill="#41315F" transform="translate(143,260)"/>
<path d="M0 0 C-4.43076923 5.78461538 -4.43076923 5.78461538 -7.3125 6.875 C-8.1478125 6.936875 -8.1478125 6.936875 -9 7 C-9 6.01 -9 5.02 -9 4 C-8.34 3.67 -7.68 3.34 -7 3 C-7 2.34 -7 1.68 -7 1 C-3.375 -1.125 -3.375 -1.125 0 0 Z " fill="#6F5988" transform="translate(340,258)"/>
<path d="M0 0 C2.97 0 5.94 0 9 0 C9 0.99 9 1.98 9 3 C6.36 3.66 3.72 4.32 1 5 C0.67 3.35 0.34 1.7 0 0 Z " fill="#564972" transform="translate(44,250)"/>
<path d="M0 0 C1.4540625 0.0309375 1.4540625 0.0309375 2.9375 0.0625 C1.9475 1.5475 1.9475 1.5475 0.9375 3.0625 C0.2775 3.0625 -0.3825 3.0625 -1.0625 3.0625 C-1.0625 4.0525 -1.0625 5.0425 -1.0625 6.0625 C0.2575 5.7325 1.5775 5.4025 2.9375 5.0625 C2.9375 5.7225 2.9375 6.3825 2.9375 7.0625 C1.9475 7.0625 0.9575 7.0625 -0.0625 7.0625 C-0.3925 7.7225 -0.7225 8.3825 -1.0625 9.0625 C-2.0525 6.4225 -3.0425 3.7825 -4.0625 1.0625 C-3.0625 0.0625 -3.0625 0.0625 0 0 Z " fill="#4F3F70" transform="translate(200.0625,231.9375)"/>
<path d="M0 0 C0.66 0 1.32 0 2 0 C2 0.66 2 1.32 2 2 C2.99 2.33 3.98 2.66 5 3 C4.01 3.495 4.01 3.495 3 4 C2.27306096 5.97888961 1.60183749 7.97954558 1 10 C-0.32 9.34 -1.64 8.68 -3 8 C-2.34 7.67 -1.68 7.34 -1 7 C-1.020625 6.21625 -1.04125 5.4325 -1.0625 4.625 C-1 2 -1 2 0 0 Z " fill="#5E4E7A" transform="translate(58,268)"/>
<path d="M0 0 C0.66 0.33 1.32 0.66 2 1 C2 2.32 2 3.64 2 5 C-5.42857143 5.28571429 -5.42857143 5.28571429 -9 3 C-8.67 2.67 -8.34 2.34 -8 2 C-5.30917128 2.17635452 -2.67148554 2.61835921 0 3 C0 2.01 0 1.02 0 0 Z " fill="#483862" transform="translate(444,246)"/>
<path d="M0 0 C0.33 0 0.66 0 1 0 C1.08075665 2.29109597 1.13907731 4.58299267 1.1875 6.875 C1.22230469 8.15117187 1.25710938 9.42734375 1.29296875 10.7421875 C1.19628906 11.81726563 1.09960938 12.89234375 1 14 C-2 16 -2 16 -5 16 C-5 15.01 -5 14.02 -5 13 C-3.35 13 -1.7 13 0 13 C0 8.71 0 4.42 0 0 Z " fill="#746985" transform="translate(304,248)"/>
<path d="M0 0 C0.66 0.66 1.32 1.32 2 2 C0.515 4.475 0.515 4.475 -1 7 C-5.455 6.01 -5.455 6.01 -10 5 C-10 4.67 -10 4.34 -10 4 C-6.97265625 3.75585938 -6.97265625 3.75585938 -3.9453125 3.51171875 C-1.60480784 3.12606964 -1.60480784 3.12606964 0 0 Z " fill="#60507E" transform="translate(401,235)"/>
<path d="M0 0 C-0.33 1.65 -0.66 3.3 -1 5 C-1.70125 4.54625 -2.4025 4.0925 -3.125 3.625 C-6.02984591 1.98313057 -8.8139348 0.96322901 -12 0 C-12 -0.33 -12 -0.66 -12 -1 C-7.28400182 -1.92470553 -4.32734391 -2.22923777 0 0 Z " fill="#5B4D7A" transform="translate(81,236)"/>
<path d="M0 0 C0.33 0.99 0.66 1.98 1 3 C-3.455 3.495 -3.455 3.495 -8 4 C-8 3.01 -8 2.02 -8 1 C-5.29120665 -0.35439668 -2.99066732 -0.06501451 0 0 Z " fill="#382460" transform="translate(207,234)"/>
<path d="M0 0 C0.66 0 1.32 0 2 0 C2.99 1.98 3.98 3.96 5 6 C4.38125 6.144375 3.7625 6.28875 3.125 6.4375 C0.96741678 6.93152225 0.96741678 6.93152225 -1 8 C-1.33 6.68 -1.66 5.36 -2 4 C-1.34 4 -0.68 4 0 4 C0 2.68 0 1.36 0 0 Z " fill="#322153" transform="translate(423,232)"/>
<path d="M0 0 C2.97 0 5.94 0 9 0 C8.01 1.485 8.01 1.485 7 3 C4.5625 3.1875 4.5625 3.1875 2 3 C1.01 3 0.02 3 -1 3 C-0.67 2.01 -0.34 1.02 0 0 Z " fill="#362459" transform="translate(62,228)"/>
<path d="M0 0 C0.66 0.66 1.32 1.32 2 2 C1.34 3.65 0.68 5.3 0 7 C-1.32 7 -2.64 7 -4 7 C-3.67 5.02 -3.34 3.04 -3 1 C-2.01 0.67 -1.02 0.34 0 0 Z " fill="#3A295E" transform="translate(57,268)"/>
<path d="M0 0 C0.99 0.33 1.98 0.66 3 1 C3.33 3.31 3.66 5.62 4 8 C3.34 8 2.68 8 2 8 C2 7.34 2 6.68 2 6 C1.01 6 0.02 6 -1 6 C-1.042721 4.33388095 -1.04063832 2.66617115 -1 1 C-0.67 0.67 -0.34 0.34 0 0 Z " fill="#37215C" transform="translate(115,260)"/>
<path d="M0 0 C1.97909398 -0.02686553 3.95828971 -0.04633375 5.9375 -0.0625 C7.03964844 -0.07410156 8.14179688 -0.08570313 9.27734375 -0.09765625 C12 0 12 0 13 1 C13.04080783 2.99958364 13.04254356 5.00045254 13 7 C12.34 6.67 11.68 6.34 11 6 C11 4.68 11 3.36 11 2 C7.37 1.67 3.74 1.34 0 1 C0 0.67 0 0.34 0 0 Z " fill="#867E98" transform="translate(204,258)"/>
<path d="M0 0 C1.32 0 2.64 0 4 0 C4.33 1.98 4.66 3.96 5 6 C2.03 5.505 2.03 5.505 -1 5 C-1.33 4.01 -1.66 3.02 -2 2 C-1.34 2 -0.68 2 0 2 C0 1.34 0 0.68 0 0 Z " fill="#342359" transform="translate(279,256)"/>
<path d="M0 0 C1.41377341 2.63904371 2.37240135 5.07120629 3 8 C-0.16115776 6.63016497 -0.9927092 6.0109362 -3 3 C-2.01 2.01 -1.02 1.02 0 0 Z " fill="#5B4D7A" transform="translate(74,267)"/>
<path d="M0 0 C3.63 0.33 7.26 0.66 11 1 C10.67 1.99 10.34 2.98 10 4 C5.38308839 3.47535095 3.90012114 2.92509086 0 0 Z " fill="#5C4E74" transform="translate(432,261)"/>
<path d="M0 0 C0.33 0 0.66 0 1 0 C1 2.31 1 4.62 1 7 C-1.97 7 -4.94 7 -8 7 C-6 5.66666667 -4 4.33333333 -2 3 C-1.34 2.01 -0.68 1.02 0 0 Z " fill="#53486A" transform="translate(250,258)"/>
<path d="M0 0 C0.33 0 0.66 0 1 0 C1.33 3.96 1.66 7.92 2 12 C0.02 10.35 -1.96 8.7 -4 7 C-3.34 6.01 -2.68 5.02 -2 4 C-1.67 4.66 -1.34 5.32 -1 6 C-0.67 4.02 -0.34 2.04 0 0 Z " fill="#806E95" transform="translate(229,252)"/>
<path d="M0 0 C1.47906892 -0.02689216 2.95827483 -0.04634621 4.4375 -0.0625 C5.26121094 -0.07410156 6.08492187 -0.08570313 6.93359375 -0.09765625 C9 0 9 0 10 1 C10.04063832 2.66617115 10.042721 4.33388095 10 6 C9.01 6.495 9.01 6.495 8 7 C7.67 5.68 7.34 4.36 7 3 C4.69 2.34 2.38 1.68 0 1 C0 0.67 0 0.34 0 0 Z " fill="#9985A8" transform="translate(204,244)"/>
<path d="M0 0 C0.33 0.99 0.66 1.98 1 3 C3.01508358 3.73323796 3.01508358 3.73323796 5 4 C5.33 3.01 5.66 2.02 6 1 C6 1.99 6 2.98 6 4 C6.66 4 7.32 4 8 4 C8 4.66 8 5.32 8 6 C6.824375 5.9690625 6.824375 5.9690625 5.625 5.9375 C3.01885039 5.81315937 3.01885039 5.81315937 1 7 C1 6.34 1 5.68 1 5 C0.34 4.67 -0.32 4.34 -1 4 C-0.67 2.68 -0.34 1.36 0 0 Z " fill="#322350" transform="translate(59,238)"/>
<path d="M0 0 C2.0625 0.4375 2.0625 0.4375 4 1 C4 1.99 4 2.98 4 4 C3.34 4 2.68 4 2 4 C2 4.66 2 5.32 2 6 C1.01 6 0.02 6 -1 6 C-1.042721 4.33388095 -1.04063832 2.66617115 -1 1 C-0.67 0.67 -0.34 0.34 0 0 Z " fill="#332155" transform="translate(298,234)"/>
<path d="M0 0 C2.31 0.33 4.62 0.66 7 1 C7 1.99 7 2.98 7 4 C5.1875 4.6875 5.1875 4.6875 3 5 C1.25 3.6875 1.25 3.6875 0 2 C0 1.34 0 0.68 0 0 Z " fill="#423273" transform="translate(394,232)"/>
<path d="M0 0 C1.32 0 2.64 0 4 0 C3.67 0.66 3.34 1.32 3 2 C3.33 2.33 3.66 2.66 4 3 C3.67 3.99 3.34 4.98 3 6 C1.35 5.67 -0.3 5.34 -2 5 C-1.34 3.35 -0.68 1.7 0 0 Z " fill="#3E2B65" transform="translate(67,275)"/>
<path d="M0 0 C1.32 0.66 2.64 1.32 4 2 C3.34 4.31 2.68 6.62 2 9 C0.68 8.67 -0.64 8.34 -2 8 C-1.01 8 -0.02 8 1 8 C0.67 7.01 0.34 6.02 0 5 C0 3.33333333 0 1.66666667 0 0 Z " fill="#7C768A" transform="translate(455,233)"/>
<path d="M0 0 C1.98 0.495 1.98 0.495 4 1 C3.34 2.98 2.68 4.96 2 7 C1.01 7 0.02 7 -1 7 C-0.67 4.69 -0.34 2.38 0 0 Z " fill="#2C1C45" transform="translate(403,233)"/>
<path d="M0 0 C0.66 0 1.32 0 2 0 C1.67 2.64 1.34 5.28 1 8 C-0.32 7.67 -1.64 7.34 -3 7 C-1.125 1.125 -1.125 1.125 0 0 Z " fill="#483269" transform="translate(87,233)"/>
<path d="M0 0 C2.475 0.99 2.475 0.99 5 2 C4.34 3.32 3.68 4.64 3 6 C2.01 5.67 1.02 5.34 0 5 C0 3.35 0 1.7 0 0 Z " fill="#3F2D5F" transform="translate(132,269)"/>
<path d="M0 0 C2.4375 0.75 2.4375 0.75 5 2 C5.8125 4.125 5.8125 4.125 6 6 C4.68 6 3.36 6 2 6 C3 4 3 4 4 3 C3.01 3 2.02 3 1 3 C0.67 3.66 0.34 4.32 0 5 C0 3.35 0 1.7 0 0 Z " fill="#1F126A" transform="translate(184,257)"/>
<path d="M0 0 C0.66 0.99 1.32 1.98 2 3 C1.01 3.495 1.01 3.495 0 4 C-0.33 4.99 -0.66 5.98 -1 7 C-1.99 7 -2.98 7 -4 7 C-3.6875 4.625 -3.6875 4.625 -3 2 C-2.01 1.34 -1.02 0.68 0 0 Z " fill="#6C5E87" transform="translate(276,247)"/>
<path d="M0 0 C2 3 2 3 1.625 5.1875 C1.41875 5.785625 1.2125 6.38375 1 7 C0.34 6.01 -0.32 5.02 -1 4 C-1.33 4.66 -1.66 5.32 -2 6 C-2.66 5.01 -3.32 4.02 -4 3 C-3 1 -3 1 0 0 Z " fill="#753F88" transform="translate(241,244)"/>
<path d="M0 0 C1.32 0.33 2.64 0.66 4 1 C4 2.32 4 3.64 4 5 C2 6.75 2 6.75 0 8 C0 5.36 0 2.72 0 0 Z " fill="#605474" transform="translate(157,231)"/>
<path d="M0 0 C2 2 2 2 2 5 C0.68 5 -0.64 5 -2 5 C-2 4.34 -2 3.68 -2 3 C-2.99 3.33 -3.98 3.66 -5 4 C-5 3.34 -5 2.68 -5 2 C-3.35 1.34 -1.7 0.68 0 0 Z " fill="#362355" transform="translate(89,227)"/>
<path d="M0 0 C0.99 0.33 1.98 0.66 3 1 C2.34 1 1.68 1 1 1 C1 1.66 1 2.32 1 3 C0.34 3 -0.32 3 -1 3 C-1 3.66 -1 4.32 -1 5 C-1.66 5 -2.32 5 -3 5 C-3.33 5.99 -3.66 6.98 -4 8 C-4 7.01 -4 6.02 -4 5 C-4.66 4.67 -5.32 4.34 -6 4 C-3 2 -3 2 0 2 C0 1.34 0 0.68 0 0 Z " fill="#5C5087" transform="translate(119,266)"/>
<path d="M0 0 C0.66 0.66 1.32 1.32 2 2 C1.34 3.32 0.68 4.64 0 6 C-1.32 6 -2.64 6 -4 6 C-2.25 1.125 -2.25 1.125 0 0 Z " fill="#3C2765" transform="translate(299,257)"/>
<path d="M0 0 C0.33 0.66 0.66 1.32 1 2 C-0.3125 4.625 -0.3125 4.625 -2 7 C-2.66 7 -3.32 7 -4 7 C-4 7.66 -4 8.32 -4 9 C-4.66 9 -5.32 9 -6 9 C-4.47291037 5.56404834 -2.40072955 2.88087546 0 0 Z " fill="#7A7290" transform="translate(162,252)"/>
<path d="M0 0 C2.97 0 5.94 0 9 0 C9 2.31 9 4.62 9 7 C8.814375 6.38125 8.62875 5.7625 8.4375 5.125 C6.28562767 1.94397134 3.62466237 1.80548053 0 1 C0 0.67 0 0.34 0 0 Z " fill="#8B7FA2" transform="translate(441,251)"/>
<path d="M0 0 C0.33 0.66 0.66 1.32 1 2 C1.66 2.33 2.32 2.66 3 3 C2.01 4.485 2.01 4.485 1 6 C-2.125 6.1875 -2.125 6.1875 -5 6 C-4.01 5.67 -3.02 5.34 -2 5 C-0.78130071 2.49552484 -0.78130071 2.49552484 0 0 Z " fill="#655A91" transform="translate(59,243)"/>
<path d="M0 0 C0.33 1.32 0.66 2.64 1 4 C-1.31 5.32 -3.62 6.64 -6 8 C-4.55746343 4.63408134 -2.66735273 2.48952921 0 0 Z " fill="#635979" transform="translate(282,233)"/>
<path d="M0 0 C2.31 0.33 4.62 0.66 7 1 C5.68 1.33 4.36 1.66 3 2 C3 3.65 3 5.3 3 7 C2.01 6.34 1.02 5.68 0 5 C-0.1875 2.375 -0.1875 2.375 0 0 Z " fill="#332352" transform="translate(347,232)"/>
<path d="M0 0 C0.99 0.66 1.98 1.32 3 2 C2.67 3.65 2.34 5.3 2 7 C0.68 6.67 -0.64 6.34 -2 6 C-1.34 4.02 -0.68 2.04 0 0 Z " fill="#352357" transform="translate(60,271)"/>
<path d="M0 0 C0.99 0 1.98 0 3 0 C2.34 1.65 1.68 3.3 1 5 C-1.64 5 -4.28 5 -7 5 C-7 4.67 -7 4.34 -7 4 C-6.030625 3.71125 -5.06125 3.4225 -4.0625 3.125 C-0.89335797 2.35785318 -0.89335797 2.35785318 0 0 Z " fill="#554E68" transform="translate(185,260)"/>
<path d="M0 0 C0.433125 0.45375 0.86625 0.9075 1.3125 1.375 C3.10798342 3.20024334 3.10798342 3.20024334 6 5 C4.125 5.625 4.125 5.625 2 6 C1.34 5.34 0.68 4.68 0 4 C0 2.68 0 1.36 0 0 Z " fill="#342453" transform="translate(353,254)"/>
<path d="M0 0 C0.99 0.33 1.98 0.66 3 1 C3 1.99 3 2.98 3 4 C1.35 4.33 -0.3 4.66 -2 5 C-1.34 3.35 -0.68 1.7 0 0 Z " fill="#3B2A5C" transform="translate(258,248)"/>
<path d="M0 0 C1.32 0.99 2.64 1.98 4 3 C3.67 3.66 3.34 4.32 3 5 C0.5625 4.625 0.5625 4.625 -2 4 C-2.33 3.34 -2.66 2.68 -3 2 C-2.01 1.34 -1.02 0.68 0 0 Z " fill="#5E4B7A" transform="translate(453,245)"/>
<path d="M0 0 C1.98 0.66 3.96 1.32 6 2 C4.68 2.99 3.36 3.98 2 5 C1.01 4.34 0.02 3.68 -1 3 C-0.34 3 0.32 3 1 3 C0.67 2.01 0.34 1.02 0 0 Z " fill="#5A4977" transform="translate(392,245)"/>
<path d="M0 0 C0.66 0.66 1.32 1.32 2 2 C4.31765729 2.71927295 6.65095874 3.3909893 9 4 C8.01 4.66 7.02 5.32 6 6 C6 5.34 6 4.68 6 4 C5.05125 4.04125 4.1025 4.0825 3.125 4.125 C0 4 0 4 -2 2 C-1.34 2 -0.68 2 0 2 C0 1.34 0 0.68 0 0 Z " fill="#796C8C" transform="translate(442,241)"/>
<path d="M0 0 C0.99 0 1.98 0 3 0 C3.0825 0.61875 3.165 1.2375 3.25 1.875 C3.81258459 4.18437567 3.81258459 4.18437567 6.0625 5.25 C6.701875 5.4975 7.34125 5.745 8 6 C6.35 6.33 4.7 6.66 3 7 C2.34 6.01 1.68 5.02 1 4 C1.33 3.01 1.66 2.02 2 1 C1.34 0.67 0.68 0.34 0 0 Z " fill="#331F50" transform="translate(165,233)"/>
</svg>
